HIERARCHY
ROOT Hips
{
	OFFSET 0.000000 97.167313 0.000000
	CHANNELS 6 Xposition Yposition Zposition Xrotation Yrotation Zrotation
	JOINT Spine
	{
		OFFSET 0.000000 13.784798 0.064400
		CHANNELS 3 Xrotation Yrotation Zrotation
		JOINT Spine1
		{
			OFFSET 0.000000 12.037903 0.404700
			CHANNELS 3 Xrotation Yrotation Zrotation
			JOINT Spine2
			{
				OFFSET 0.000000 17.795601 0.420200
				CHANNELS 3 Xrotation Yrotation Zrotation
				JOINT Neck
				{
					OFFSET 0.000000 39.131302 11.954600
					CHANNELS 3 Xrotation Yrotation Zrotation
					JOINT Head
					{
						OFFSET 0.000000 14.456192 15.627699
						CHANNELS 3 Xrotation Yrotation Zrotation
						JOINT HeadTop_End
						{
							OFFSET 0.000000 15.703506 7.603401
							CHANNELS 3 Xrotation Yrotation Zrotation
							End Site
							{
								OFFSET 0.000000 17.447403 0.000000
							}
						}
					}
				}
				JOINT LeftShoulder
				{
					OFFSET 17.399500 24.608795 1.168800
					CHANNELS 3 Xrotation Yrotation Zrotation
					JOINT LeftArm
					{
						OFFSET 18.980635 5.765305 1.818600
						CHANNELS 3 Xrotation Yrotation Zrotation
						JOINT LeftForeArm
						{
							OFFSET 49.290169 0.000000 0.000000
							CHANNELS 3 Xrotation Yrotation Zrotation
							JOINT LeftHand
							{
								OFFSET 31.562012 0.000000 0.000000
								CHANNELS 3 Xrotation Yrotation Zrotation
								JOINT LeftHandThumb1
								{
									OFFSET 6.133995 -4.388519 7.076070
									CHANNELS 3 Xrotation Yrotation Zrotation
									JOINT LeftHandThumb2
									{
										OFFSET 6.037666 -3.485840 3.485847
										CHANNELS 3 Xrotation Yrotation Zrotation
										JOINT LeftHandThumb3
										{
											OFFSET 6.496506 -3.750763 3.750761
											CHANNELS 3 Xrotation Yrotation Zrotation
											JOINT LeftHandThumb4
											{
												OFFSET 5.616882 -3.242905 3.242910
												CHANNELS 3 Xrotation Yrotation Zrotation
												End Site
												{
													OFFSET -1.254608 7.132141 0.375429
												}
											}
										}
									}
								}
								JOINT LeftHandPinky1
								{
									OFFSET 18.920792 -0.453171 -11.426712
									CHANNELS 3 Xrotation Yrotation Zrotation
									JOINT LeftHandPinky2
									{
										OFFSET 4.919586 0.000000 0.000000
										CHANNELS 3 Xrotation Yrotation Zrotation
										JOINT LeftHandPinky3
										{
											OFFSET 5.233047 0.000000 0.000000
											CHANNELS 3 Xrotation Yrotation Zrotation
											JOINT LeftHandPinky4
											{
												OFFSET 5.571716 0.000000 0.000000
												CHANNELS 3 Xrotation Yrotation Zrotation
												End Site
												{
													OFFSET -3.459808 4.342407 -0.466164
												}
											}
										}
									}
								}
								JOINT LeftHandRing1
								{
									OFFSET 22.726120 -0.094986 -6.500475
									CHANNELS 3 Xrotation Yrotation Zrotation
									JOINT LeftHandRing2
									{
										OFFSET 6.408615 0.000000 0.000000
										CHANNELS 3 Xrotation Yrotation Zrotation
										JOINT LeftHandRing3
										{
											OFFSET 6.150223 0.000000 0.000000
											CHANNELS 3 Xrotation Yrotation Zrotation
											JOINT LeftHandRing4
											{
												OFFSET 6.145386 0.000000 0.000000
												CHANNELS 3 Xrotation Yrotation Zrotation
												End Site
												{
													OFFSET -3.671402 4.923981 -0.202372
												}
											}
										}
									}
								}
								JOINT LeftHandMiddle1
								{
									OFFSET 23.373947 0.000000 0.000001
									CHANNELS 3 Xrotation Yrotation Zrotation
									JOINT LeftHandMiddle2
									{
										OFFSET 6.996567 0.000000 0.000000
										CHANNELS 3 Xrotation Yrotation Zrotation
										JOINT LeftHandMiddle3
										{
											OFFSET 7.015945 0.000000 0.000000
											CHANNELS 3 Xrotation Yrotation Zrotation
											JOINT LeftHandMiddle4
											{
												OFFSET 7.721573 0.000000 0.000000
												CHANNELS 3 Xrotation Yrotation Zrotation
												End Site
												{
													OFFSET -4.651108 6.158463 0.251582
												}
											}
										}
									}
								}
								JOINT LeftHandIndex1
								{
									OFFSET 21.310577 -0.490082 6.209344
									CHANNELS 3 Xrotation Yrotation Zrotation
									JOINT LeftHandIndex2
									{
										OFFSET 7.536453 0.000000 0.000000
										CHANNELS 3 Xrotation Yrotation Zrotation
										JOINT LeftHandIndex3
										{
											OFFSET 7.512344 0.000000 0.000000
											CHANNELS 3 Xrotation Yrotation Zrotation
											JOINT LeftHandIndex4
											{
												OFFSET 10.212402 0.000000 0.000001
												CHANNELS 3 Xrotation Yrotation Zrotation
												End Site
												{
													OFFSET -5.180801 8.690506 1.388433
												}
											}
										}
									}
								}
							}
						}
					}
				}
				JOINT RightShoulder
				{
					OFFSET -17.399500 24.608795 1.168800
					CHANNELS 3 Xrotation Yrotation Zrotation
					JOINT RightArm
					{
						OFFSET -18.980635 5.765305 1.818600
						CHANNELS 3 Xrotation Yrotation Zrotation
						JOINT RightForeArm
						{
							OFFSET -49.290169 0.000000 0.000000
							CHANNELS 3 Xrotation Yrotation Zrotation
							JOINT RightHand
							{
								OFFSET -31.562012 0.000000 0.000000
								CHANNELS 3 Xrotation Yrotation Zrotation
								JOINT RightHandThumb1
								{
									OFFSET -6.133995 -4.388519 7.076070
									CHANNELS 3 Xrotation Yrotation Zrotation
									JOINT RightHandThumb2
									{
										OFFSET -6.037666 -3.485840 3.485847
										CHANNELS 3 Xrotation Yrotation Zrotation
										JOINT RightHandThumb3
										{
											OFFSET -6.496506 -3.750763 3.750761
											CHANNELS 3 Xrotation Yrotation Zrotation
											JOINT RightHandThumb4
											{
												OFFSET -5.616882 -3.242905 3.242910
												CHANNELS 3 Xrotation Yrotation Zrotation
												End Site
												{
													OFFSET 1.254608 7.132141 0.375429
												}
											}
										}
									}
								}
								JOINT RightHandIndex1
								{
									OFFSET -21.310577 -0.490082 6.209344
									CHANNELS 3 Xrotation Yrotation Zrotation
									JOINT RightHandIndex2
									{
										OFFSET -7.536453 0.000000 0.000000
										CHANNELS 3 Xrotation Yrotation Zrotation
										JOINT RightHandIndex3
										{
											OFFSET -7.512344 0.000000 0.000000
											CHANNELS 3 Xrotation Yrotation Zrotation
											JOINT RightHandIndex4
											{
												OFFSET -10.212402 0.000000 0.000001
												CHANNELS 3 Xrotation Yrotation Zrotation
												End Site
												{
													OFFSET 5.180801 8.690506 1.388433
												}
											}
										}
									}
								}
								JOINT RightHandMiddle1
								{
									OFFSET -23.373947 0.000000 0.000001
									CHANNELS 3 Xrotation Yrotation Zrotation
									JOINT RightHandMiddle2
									{
										OFFSET -6.996567 0.000000 0.000000
										CHANNELS 3 Xrotation Yrotation Zrotation
										JOINT RightHandMiddle3
										{
											OFFSET -7.015945 0.000000 0.000000
											CHANNELS 3 Xrotation Yrotation Zrotation
											JOINT RightHandMiddle4
											{
												OFFSET -7.721573 0.000000 0.000000
												CHANNELS 3 Xrotation Yrotation Zrotation
												End Site
												{
													OFFSET 4.651108 6.158463 0.251582
												}
											}
										}
									}
								}
								JOINT RightHandRing1
								{
									OFFSET -22.726120 -0.094986 -6.500475
									CHANNELS 3 Xrotation Yrotation Zrotation
									JOINT RightHandRing2
									{
										OFFSET -6.408615 0.000000 0.000000
										CHANNELS 3 Xrotation Yrotation Zrotation
										JOINT RightHandRing3
										{
											OFFSET -6.150223 0.000000 0.000000
											CHANNELS 3 Xrotation Yrotation Zrotation
											JOINT RightHandRing4
											{
												OFFSET -6.145386 0.000000 0.000000
												CHANNELS 3 Xrotation Yrotation Zrotation
												End Site
												{
													OFFSET 3.671402 4.923981 -0.202372
												}
											}
										}
									}
								}
								JOINT RightHandPinky1
								{
									OFFSET -18.920792 -0.453171 -11.426712
									CHANNELS 3 Xrotation Yrotation Zrotation
									JOINT RightHandPinky2
									{
										OFFSET -4.919586 0.000000 0.000000
										CHANNELS 3 Xrotation Yrotation Zrotation
										JOINT RightHandPinky3
										{
											OFFSET -5.233047 0.000000 0.000000
											CHANNELS 3 Xrotation Yrotation Zrotation
											JOINT RightHandPinky4
											{
												OFFSET -5.571716 0.000000 0.000000
												CHANNELS 3 Xrotation Yrotation Zrotation
												End Site
												{
													OFFSET 3.459808 4.342407 -0.466164
												}
											}
										}
									}
								}
							}
						}
					}
				}
			}
		}
	}
	JOINT LeftUpLeg
	{
		OFFSET 19.899099 -7.885101 -3.429500
		CHANNELS 3 Xrotation Yrotation Zrotation
		JOINT LeftLeg
		{
			OFFSET 1.745560 -36.997807 10.304700
			CHANNELS 3 Xrotation Yrotation Zrotation
			JOINT LeftFoot
			{
				OFFSET -1.745558 -29.803308 -13.615400
				CHANNELS 3 Xrotation Yrotation Zrotation
				JOINT LeftToeBase
				{
					OFFSET 1.181900 -18.539904 15.226099
					CHANNELS 3 Xrotation Yrotation Zrotation
					JOINT LeftToe_End
					{
						OFFSET -0.863701 1.402801 16.534700
						CHANNELS 3 Xrotation Yrotation Zrotation
						End Site
						{
							OFFSET 0.000000 16.616566 0.000000
						}
					}
				}
			}
		}
	}
	JOINT RightUpLeg
	{
		OFFSET -19.899099 -7.885101 -3.429500
		CHANNELS 3 Xrotation Yrotation Zrotation
		JOINT RightLeg
		{
			OFFSET -1.745560 -36.997807 10.304700
			CHANNELS 3 Xrotation Yrotation Zrotation
			JOINT RightFoot
			{
				OFFSET 1.745558 -29.803308 -13.615400
				CHANNELS 3 Xrotation Yrotation Zrotation
				JOINT RightToeBase
				{
					OFFSET -1.181900 -18.539904 15.226099
					CHANNELS 3 Xrotation Yrotation Zrotation
					JOINT RightToe_End
					{
						OFFSET 0.863701 1.402801 16.534700
						CHANNELS 3 Xrotation Yrotation Zrotation
						End Site
						{
							OFFSET 0.000000 16.616566 0.000000
						}
					}
				}
			}
		}
	}
}
MOTION
Frames: 5
Frame Time: 0.033333
-2.006365 71.666451 0.405502 13.772869 -48.025959 9.855181 7.436667 3.690273 -3.546716 1.209327 1.419308 2.320005 0.209405 1.297917 1.043739 -1.852111 9.789346 -1.570085 -3.710347 23.673104 -4.987626 -0.000001 0.000001 -0.000000 -2.421957 -9.912766 -4.106173 -4.668988 -14.995296 -46.826944 -96.668063 -58.172776 -94.771743 0.027034 -0.377066 -3.261901 4.766492 -0.870668 -14.442459 15.732321 12.674838 8.828576 63.225121 -8.283635 4.278562 -0.000000 0.000001 -0.000001 -8.882751 8.262615 -85.751195 -0.044335 -0.067887 -74.105667 -0.019910 -0.050001 -48.550484 -0.000001 0.000001 -0.000000 -4.486619 3.914174 -90.411597 -1.107798 -0.681252 -62.311071 -0.105572 1.186437 -72.507021 -0.000000 -0.000000 0.000005 -5.482388 2.419652 -86.651598 -0.067782 -4.899633 -76.606903 1.510574 0.534595 -67.246306 0.000000 0.000000 0.000008 -3.609635 -7.817625 -81.260530 0.002862 -4.390541 -67.459859 1.841009 0.670614 -69.586842 -0.000000 0.000003 0.000001 -7.389548 -19.316805 2.798899 3.089099 2.300714 51.805117 -16.213725 73.879431 16.738284 -2.716601 27.655245 10.524492 24.918361 -21.323362 30.343030 9.041929 8.262091 -18.001802 -16.109845 -19.128870 -12.401657 0.000001 0.000001 0.000001 -0.063535 -3.017235 61.424410 0.006462 4.395130 66.609186 1.919196 -0.429155 59.456674 -0.000000 -0.000003 -0.000002 -1.221743 -0.129492 68.273669 -0.078680 4.899218 84.501762 0.919130 -1.334119 32.715578 -0.000002 -0.000000 -0.000001 0.882094 -4.623064 79.192642 -0.721567 1.141056 73.254380 -0.065386 -1.198584 39.144378 -0.000001 0.000000 0.000004 -3.962387 0.099783 86.766782 -0.027284 0.052914 54.416124 -0.006494 0.028387 25.829813 -0.000000 -0.000001 0.000000 -70.917806 18.172179 47.546917 43.389019 -16.213667 3.503606 11.514465 0.395627 -16.160111 -2.525604 -3.753736 4.087206 0.000000 -0.000000 0.000000 -26.566764 -19.874367 -46.675211 36.657649 7.562673 -1.327841 -12.783078 -10.423482 38.817451 -1.369728 0.621668 -0.987354 0.000000 0.000001 -0.000000 
-2.405220 72.910439 -2.079277 15.526540 -47.651566 12.323676 7.579257 3.927913 -4.236278 0.896634 1.549906 2.181042 -0.045081 1.433263 0.988695 -1.111079 10.576034 -3.754861 -3.073301 24.225091 -5.699440 0.000001 -0.000000 -0.000000 -2.011399 -7.983230 -3.309712 -8.182096 -14.683218 -46.939994 -88.844464 -54.488845 -87.124254 0.152392 -3.372366 -9.125975 4.766491 -0.870671 -14.442467 15.732325 12.674835 8.828580 63.225115 -8.283641 4.278562 0.000000 0.000001 -0.000002 -8.882751 8.262616 -85.751201 -0.044337 -0.067889 -74.105667 -0.019909 -0.050001 -48.550477 -0.000000 -0.000000 -0.000004 -4.486620 3.914173 -90.411603 -1.107799 -0.681251 -62.311071 -0.105572 1.186437 -72.507021 -0.000000 0.000001 0.000003 -5.482385 2.419652 -86.651605 -0.067780 -4.899632 -76.606903 1.510575 0.534594 -67.246306 0.000001 0.000000 0.000008 -3.609636 -7.817625 -81.260530 0.002861 -4.390543 -67.459866 1.841010 0.670617 -69.586835 -0.000001 0.000003 0.000001 -6.676388 -17.118720 3.410517 4.065494 -1.479326 50.391063 -11.864430 74.681179 13.025788 -1.591923 26.981436 7.726157 24.918366 -21.323361 30.343030 9.041929 8.262088 -18.001805 -16.109852 -19.128872 -12.401656 0.000002 -0.000001 -0.000001 -0.063532 -3.017233 61.424410 0.006460 4.395133 66.609193 1.919195 -0.429150 59.456674 -0.000001 0.000000 -0.000001 -1.221743 -0.129487 68.273669 -0.078680 4.899214 84.501762 0.919134 -1.334120 32.715585 -0.000003 -0.000001 -0.000001 0.882098 -4.623063 79.192642 -0.721568 1.141055 73.254373 -0.065382 -1.198583 39.144378 0.000001 -0.000000 0.000000 -3.962384 0.099784 86.766782 -0.027288 0.052913 54.416117 -0.006491 0.028386 25.829817 -0.000000 -0.000001 0.000004 -68.421174 19.289704 45.939303 35.569675 -14.422679 2.354019 16.362087 -0.290102 -17.882463 -2.525602 -3.753748 4.087205 -0.000000 0.000001 0.000000 -29.448716 -18.991350 -46.079656 38.883772 6.636246 -1.040992 -14.018339 -9.845480 36.384428 -1.369729 0.621621 -0.987348 0.000000 0.000000 0.000000 
-2.334364 73.161461 -4.812504 17.439409 -47.288740 14.874530 7.647497 4.211691 -4.825380 0.723208 1.631306 2.039934 -0.160270 1.521941 0.927548 -0.487507 11.261355 -5.729257 -2.644648 24.659763 -6.381096 -0.000000 -0.000000 -0.000000 -1.691636 -6.684966 -2.245924 -11.318029 -13.864947 -46.889542 -82.798859 -51.309501 -80.880600 -0.273831 -6.398198 -13.994439 4.766488 -0.870670 -14.442461 15.732318 12.674834 8.828578 63.225115 -8.283633 4.278561 -0.000000 0.000001 -0.000001 -8.882750 8.262612 -85.751195 -0.044336 -0.067896 -74.105667 -0.019911 -0.050004 -48.550480 -0.000002 -0.000001 -0.000002 -4.486620 3.914171 -90.411597 -1.107799 -0.681251 -62.311071 -0.105573 1.186438 -72.507014 0.000000 0.000000 0.000005 -5.482387 2.419651 -86.651598 -0.067782 -4.899633 -76.606903 1.510573 0.534595 -67.246300 0.000001 0.000000 0.000004 -3.609638 -7.817630 -81.260530 0.002866 -4.390544 -67.459859 1.841010 0.670614 -69.586842 -0.000000 0.000005 0.000002 -6.010884 -15.009462 3.902635 4.470791 -5.120421 48.866769 -7.926750 74.539507 9.657475 -0.554774 26.149188 5.172759 24.918367 -21.323366 30.343037 9.041929 8.262088 -18.001802 -16.109848 -19.128874 -12.401657 0.000002 0.000000 0.000002 -0.063531 -3.017234 61.424410 0.006458 4.395129 66.609193 1.919197 -0.429149 59.456674 -0.000003 0.000003 -0.000003 -1.221743 -0.129489 68.273669 -0.078678 4.899215 84.501762 0.919134 -1.334120 32.715582 0.000000 0.000001 -0.000004 0.882098 -4.623063 79.192642 -0.721565 1.141058 73.254373 -0.065391 -1.198583 39.144378 -0.000005 0.000005 -0.000005 -3.962390 0.099782 86.766782 -0.027286 0.052915 54.416124 -0.006490 0.028389 25.829815 0.000001 0.000000 -0.000003 -66.271106 19.154357 45.300075 32.405665 -10.684039 0.708284 18.168747 -0.385059 -18.498842 -3.618425 -3.225575 3.359480 0.000000 -0.000000 -0.000000 -33.697090 -17.223201 -46.079526 42.948960 6.308041 -0.770154 -15.678662 -9.421444 33.946856 -1.369725 0.621617 -0.987365 0.000000 0.000000 -0.000000 
-1.816713 71.879364 -7.476045 19.162552 -46.880629 17.152835 8.055224 4.534201 -5.459325 0.763762 1.483809 1.883312 -0.060641 1.383481 0.843942 -1.032643 11.356140 -6.148967 -3.798170 24.294884 -6.823905 -0.000000 0.000000 -0.000000 -1.457171 -7.044678 -0.433701 -13.277802 -11.431307 -45.737931 -77.391248 -50.301119 -75.039880 -0.969784 -9.591085 -16.599713 4.766487 -0.870666 -14.442462 15.732323 12.674835 8.828577 63.225115 -8.283639 4.278564 -0.000000 0.000001 -0.000002 -8.882751 8.262616 -85.751195 -0.044339 -0.067891 -74.105667 -0.019909 -0.050002 -48.550477 -0.000000 -0.000001 -0.000004 -4.486621 3.914172 -90.411597 -1.107799 -0.681252 -62.311071 -0.105573 1.186434 -72.507021 -0.000000 0.000000 0.000007 -5.482388 2.419652 -86.651598 -0.067783 -4.899632 -76.606903 1.510574 0.534596 -67.246306 0.000000 0.000000 0.000008 -3.609635 -7.817626 -81.260523 0.002865 -4.390545 -67.459859 1.841010 0.670615 -69.586835 -0.000001 0.000000 -0.000002 -5.463023 -13.668832 4.026424 2.794359 -7.306534 47.759094 -2.606383 70.300883 4.921442 0.653629 26.173234 2.170446 24.918366 -21.323364 30.343030 9.041927 8.262091 -18.001807 -16.109846 -19.128874 -12.401659 0.000000 -0.000002 0.000002 -0.063534 -3.017236 61.424410 0.006455 4.395129 66.609186 1.919197 -0.429153 59.456674 -0.000002 -0.000000 -0.000006 -1.221740 -0.129490 68.273669 -0.078678 4.899214 84.501762 0.919131 -1.334118 32.715582 0.000001 0.000001 -0.000001 0.882094 -4.623063 79.192642 -0.721565 1.141058 73.254380 -0.065387 -1.198585 39.144378 0.000001 -0.000001 -0.000003 -3.962380 0.099778 86.766782 -0.027282 0.052912 54.416127 -0.006488 0.028391 25.829817 0.000002 -0.000004 -0.000002 -65.395298 16.064675 45.841515 36.096061 -5.435459 -1.224849 18.693738 -0.246013 -19.012375 -5.259991 -2.186771 1.970918 0.000000 -0.000000 -0.000000 -38.964713 -14.471974 -46.995687 49.247225 6.897639 -0.430340 -18.037746 -9.349410 31.751114 -1.369718 0.621649 -0.987363 -0.000000 0.000000 -0.000000 
-1.103319 69.403854 -9.880422 20.341273 -46.380604 18.852190 9.180719 4.860016 -6.330444 0.897029 1.105324 1.676344 0.131538 1.015771 0.708123 -2.889818 10.923624 -4.962771 -6.635571 23.160716 -7.094191 -0.000001 0.000000 -0.000000 -1.165137 -8.347915 1.827310 -14.589269 -8.057387 -43.775505 -71.763445 -50.276039 -69.007840 -1.768787 -12.915817 -17.994007 4.766490 -0.870668 -14.442462 15.732330 12.674837 8.828575 63.225115 -8.283639 4.278561 -0.000000 -0.000001 -0.000001 -8.882752 8.262613 -85.751195 -0.044335 -0.067888 -74.105674 -0.019910 -0.049997 -48.550477 -0.000000 0.000004 -0.000002 -4.486622 3.914172 -90.411597 -1.107797 -0.681252 -62.311071 -0.105573 1.186438 -72.507014 0.000001 -0.000001 0.000003 -5.482386 2.419656 -86.651605 -0.067782 -4.899631 -76.606903 1.510573 0.534597 -67.246306 -0.000000 -0.000001 0.000004 -3.609638 -7.817624 -81.260530 0.002861 -4.390542 -67.459859 1.841012 0.670616 -69.586842 -0.000000 0.000001 0.000001 -5.017049 -13.217158 3.803347 -1.049683 -7.649496 47.777078 2.082703 61.321910 1.129009 2.339143 27.062220 -1.780271 24.918361 -21.323362 30.343030 9.041925 8.262089 -18.001804 -16.109852 -19.128874 -12.401657 -0.000001 0.000001 -0.000003 -0.063533 -3.017233 61.424410 0.006462 4.395131 66.609186 1.919198 -0.429153 59.456674 -0.000003 -0.000001 0.000001 -1.221743 -0.129490 68.273669 -0.078676 4.899216 84.501762 0.919135 -1.334119 32.715582 -0.000003 0.000000 -0.000004 0.882096 -4.623061 79.192642 -0.721567 1.141049 73.254373 -0.065390 -1.198582 39.144374 -0.000001 0.000004 -0.000003 -3.962381 0.099781 86.766782 -0.027284 0.052916 54.416124 -0.006491 0.028392 25.829817 0.000002 -0.000001 0.000000 -65.058194 11.507076 46.823819 43.015152 -0.770557 -3.213693 17.814593 0.088197 -20.315638 -6.535613 -1.099873 0.554807 -0.000000 -0.000001 0.000000 -44.290959 -11.201153 -48.575742 56.772409 8.206704 0.005773 -20.826534 -9.493329 29.807451 -1.369713 0.621642 -0.987369 0.000000 0.000001 -0.000000 
